<svg xmlns="http://www.w3.org/2000/svg" xmlns:xlink="http://www.w3.org/1999/xlink" width="500" zoomAndPan="magnify" viewBox="0 0 375 374.999991" height="500" preserveAspectRatio="xMidYMid meet" version="1.0"><defs><g/><clipPath id="d782ff4ea3"><path d="M 81 143 L 257 143 L 257 322 L 81 322 Z M 81 143 " clip-rule="nonzero"/></clipPath><clipPath id="91fb7e2261"><path d="M 216.765625 357.171875 L 35.253906 256.105469 L 108.957031 123.742188 L 290.46875 224.808594 Z M 216.765625 357.171875 " clip-rule="nonzero"/></clipPath><clipPath id="ae162dfeeb"><path d="M 216.765625 357.171875 L 35.253906 256.105469 L 108.957031 123.742188 L 290.46875 224.808594 Z M 216.765625 357.171875 " clip-rule="nonzero"/></clipPath><clipPath id="179dcbc967"><path d="M 191 83 L 268 83 L 268 187 L 191 187 Z M 191 83 " clip-rule="nonzero"/></clipPath><clipPath id="1ba9342db3"><path d="M 237.9375 64.648438 L 294.234375 156.8125 L 227.027344 197.863281 L 170.730469 105.699219 Z M 237.9375 64.648438 " clip-rule="nonzero"/></clipPath><clipPath id="c9b0371f92"><path d="M 237.9375 64.648438 L 294.234375 156.8125 L 227.027344 197.863281 L 170.730469 105.699219 Z M 237.9375 64.648438 " clip-rule="nonzero"/></clipPath><clipPath id="1dc63b7541"><path d="M 45 42 L 275 42 L 275 348 L 45 348 Z M 45 42 " clip-rule="nonzero"/></clipPath><clipPath id="5c89537a74"><path d="M 70.835938 30.40625 L 298.421875 53.457031 L 266.90625 364.617188 L 39.320312 341.566406 Z M 70.835938 30.40625 " clip-rule="nonzero"/></clipPath><clipPath id="4c72247232"><path d="M 70.835938 30.40625 L 298.421875 53.457031 L 266.90625 364.617188 L 39.320312 341.566406 Z M 70.835938 30.40625 " clip-rule="nonzero"/></clipPath><clipPath id="d9597d619e"><path d="M 62.464844 64 L 122 64 L 122 122.882812 L 62.464844 122.882812 Z M 62.464844 64 " clip-rule="nonzero"/></clipPath><clipPath id="4215625ada"><path d="M 103 45 L 138.964844 45 L 138.964844 81 L 103 81 Z M 103 45 " clip-rule="nonzero"/></clipPath></defs><rect x="-37.5" width="450" fill="#ffffff" y="-37.499999" height="449.999989" fill-opacity="1"/><rect x="-37.5" width="450" fill="#e0ebcd" y="-37.499999" height="449.999989" fill-opacity="1"/><g fill="#3d5024" fill-opacity="1"><g transform="translate(215.680241, 59.955639)"><g><path d="M 1.429688 0.214844 L 7.15625 1.066406 C 13.972656 2.082031 16.824219 -0.875 17.238281 -4.027344 C 17.617188 -6.78125 15.9375 -9.355469 11.398438 -10.261719 C 14.683594 -10.375 16.179688 -11.929688 16.460938 -13.835938 C 16.800781 -16.109375 15.246094 -17.804688 10.925781 -18.449219 L 4.359375 -19.429688 L 4.304688 -19.0625 C 5.109375 -18.6875 5.292969 -18 4.949219 -15.699219 L 3.085938 -3.183594 C 2.742188 -0.882812 2.363281 -0.277344 1.484375 -0.152344 Z M 5.28125 -2.136719 L 6.542969 -10.613281 L 9.40625 -10.183594 C 13.617188 -9.558594 15.058594 -6.933594 14.578125 -3.707031 C 14.113281 -0.589844 12.042969 1.367188 7.46875 0.683594 L 6.375 0.519531 C 5.167969 0.339844 4.980469 -0.117188 5.28125 -2.136719 Z M 6.609375 -11.03125 L 7.71875 -18.496094 L 9.851562 -18.179688 C 12.742188 -17.746094 14.179688 -16.042969 13.832031 -13.714844 C 13.527344 -11.664062 11.996094 -10.230469 9.21875 -10.644531 Z M 6.609375 -11.03125 "/></g></g></g><g fill="#3d5024" fill-opacity="1"><g transform="translate(232.748712, 62.447074)"><g><path d="M -0.457031 -0.15625 L 2.574219 0.890625 L 2.695312 0.542969 C 1.847656 0.0390625 2.046875 -0.882812 3.347656 -2.382812 L 6.285156 -5.75 L 13.84375 -3.132812 L 14.113281 1.375 C 14.277344 3.679688 14.304688 4.292969 13.390625 4.246094 L 13.269531 4.59375 L 17.425781 6.03125 L 17.546875 5.683594 C 17.066406 5.246094 16.609375 4.488281 16.472656 2.191406 L 15.363281 -15.9375 L 13.035156 -15.722656 L 13.082031 -15.074219 C 13.148438 -14.570312 13.054688 -14.214844 12.699219 -13.796875 L 2.890625 -2.542969 C 1.355469 -0.792969 0.5 -0.488281 -0.335938 -0.507812 Z M 6.582031 -6.097656 L 13.203125 -13.683594 L 13.820312 -3.59375 Z M 6.582031 -6.097656 "/></g></g></g><g fill="#3d5024" fill-opacity="1"><g transform="translate(249.806978, 68.382444)"><g><path d="M 13.703125 8.042969 C 14.195312 8.324219 14.863281 8.640625 15.304688 8.730469 L 15.472656 8.433594 C 15.335938 8.386719 15.210938 8.316406 15.0625 8.234375 C 14.226562 7.753906 14.195312 6.660156 14.699219 3.027344 C 15.246094 -0.675781 15.636719 -2.445312 12.828125 -4.570312 C 16.246094 -3.113281 18.917969 -3.90625 20.238281 -6.222656 C 21.492188 -8.414062 20.953125 -10.910156 15.953125 -13.765625 L 11.097656 -16.53125 L 10.914062 -16.210938 C 11.550781 -15.554688 11.449219 -14.863281 10.296875 -12.839844 L 4.027344 -1.851562 C 2.875 0.171875 2.328125 0.609375 1.441406 0.398438 L 1.257812 0.71875 L 5.25 2.996094 L 5.429688 2.671875 C 4.792969 2.015625 4.894531 1.324219 6.046875 -0.699219 L 9.335938 -6.464844 L 10.914062 -5.566406 C 13.871094 -3.878906 13.085938 -2.039062 12.574219 2.175781 C 12.195312 5.355469 11.804688 6.960938 13.703125 8.042969 Z M 9.546875 -6.832031 L 13.863281 -14.398438 C 14.273438 -14.199219 14.679688 -14 15.050781 -13.789062 C 18.699219 -11.707031 19.074219 -9.042969 17.820312 -6.851562 C 16.625 -4.757812 14.453125 -4.035156 11.617188 -5.652344 Z M 9.546875 -6.832031 "/></g></g></g><g fill="#3d5024" fill-opacity="1"><g transform="translate(264.812281, 76.963577)"><g><path d="M 1.109375 0.929688 L 11.839844 9.898438 L 14.433594 7.148438 L 14.230469 6.90625 C 11.753906 8.273438 9.9375 7.753906 7.847656 6.007812 L 5.019531 3.640625 C 4.386719 3.113281 4.328125 2.472656 4.855469 1.84375 L 10.445312 -4.839844 L 13.230469 -2.511719 C 15.710938 -0.4375 15.921875 0.59375 15.367188 1.789062 L 15.628906 2.007812 L 18.375 -1.277344 L 18.113281 -1.496094 C 17.035156 -0.734375 15.984375 -0.761719 13.503906 -2.835938 L 10.714844 -5.167969 L 16.230469 -11.761719 L 19.429688 -9.085938 C 21.648438 -7.230469 22.386719 -5.503906 21.546875 -2.953125 L 21.84375 -2.816406 L 23.96875 -5.847656 L 13.847656 -14.308594 L 13.613281 -14.023438 C 14.101562 -13.28125 13.898438 -12.601562 12.40625 -10.816406 L 4.292969 -1.109375 C 2.800781 0.675781 2.164062 0.996094 1.347656 0.644531 Z M 1.109375 0.929688 "/></g></g></g><g fill="#3d5024" fill-opacity="1"><g transform="translate(277.608913, 88.111274)"><g/></g></g><g fill="#3d5024" fill-opacity="1"><g transform="translate(282.148802, 92.342043)"><g><path d="M 9.34375 13.511719 L 9.558594 13.8125 L 22.984375 4.25 C 24.878906 2.898438 25.558594 2.730469 26.277344 3.296875 L 26.578125 3.082031 L 24.503906 0.171875 L 24.203125 0.386719 C 24.667969 1.625 24.414062 2.640625 21.78125 4.515625 L 12.558594 11.082031 L 18.445312 -8.332031 L 16.835938 -10.597656 L 16.535156 -10.382812 C 16.984375 -9.308594 16.648438 -8.652344 14.753906 -7.304688 L 4.449219 0.0351562 C 2.554688 1.386719 1.859375 1.53125 1.15625 0.988281 L 0.855469 1.203125 L 2.914062 4.089844 L 3.214844 3.875 C 2.75 2.640625 3.003906 1.625 5.636719 -0.253906 L 15.757812 -7.460938 Z M 9.34375 13.511719 "/></g></g></g><g fill="#3d5024" fill-opacity="1"><g transform="translate(292.942669, 108.27329)"><g/></g></g><g fill="#3d5024" fill-opacity="1"><g transform="translate(296.109065, 113.712188)"><g><path d="M 2.648438 7.644531 C 3.855469 10.765625 7.050781 13.0625 10.359375 11.78125 C 13.351562 10.628906 13.453125 7.425781 13.480469 4.039062 C 13.539062 1.429688 13.492188 -1.683594 15.980469 -2.644531 C 18.230469 -3.511719 20.179688 -2.167969 21.007812 -0.0234375 C 22.171875 2.992188 21.246094 5.480469 19.320312 7.347656 L 19.503906 7.582031 L 22.53125 6.289062 C 22.6875 5.042969 22.6875 3.066406 21.757812 0.660156 C 20.253906 -3.230469 17.304688 -5.039062 14.207031 -3.84375 C 11.402344 -2.761719 11.058594 -0.347656 11.019531 3.253906 C 10.980469 5.828125 11.019531 9.550781 8.371094 10.574219 C 6.226562 11.402344 4.148438 10.105469 3.328125 7.988281 C 1.910156 4.3125 3.488281 1.390625 5.867188 -0.714844 L 5.703125 -0.984375 L 2.074219 0.566406 C 1.65625 2.160156 1.574219 4.867188 2.648438 7.644531 Z M 2.648438 7.644531 "/></g></g></g><g fill="#3d5024" fill-opacity="1"><g transform="translate(301.580717, 128.621891)"><g><path d="M 0.351562 1.402344 L 1.460938 5.863281 L 1.820312 5.773438 C 1.855469 4.859375 2.425781 4.453125 4.683594 3.890625 L 16.960938 0.828125 C 19.21875 0.265625 19.914062 0.355469 20.375 1.148438 L 20.730469 1.058594 L 19.621094 -3.398438 L 19.261719 -3.3125 C 19.21875 -2.421875 18.65625 -1.988281 16.398438 -1.425781 L 4.121094 1.632812 C 1.863281 2.195312 1.160156 2.078125 0.707031 1.316406 Z M 0.351562 1.402344 "/></g></g></g><g fill="#3d5024" fill-opacity="1"><g transform="translate(304.041298, 135.799619)"><g><path d="M 0.113281 1.414062 L 0.40625 4.976562 L 0.773438 4.945312 C 1.011719 3.675781 1.746094 2.933594 4.96875 2.667969 L 17.523438 1.648438 L 6.210938 9.855469 L 6.253906 10.394531 L 18.96875 16.589844 L 5.054688 17.71875 C 2.738281 17.910156 2.0625 17.679688 1.738281 16.851562 L 1.371094 16.882812 L 1.746094 21.460938 L 2.113281 21.433594 C 2.296875 20.535156 2.925781 20.226562 5.246094 20.039062 L 16.722656 19.105469 C 19.949219 18.84375 20.789062 19.371094 21.21875 20.476562 L 21.585938 20.445312 L 21.328125 17.25 L 8.550781 11.003906 L 20.136719 2.632812 L 19.859375 -0.789062 L 19.492188 -0.757812 C 19.246094 0.398438 18.5 1.058594 15.277344 1.320312 L 3.796875 2.253906 C 1.480469 2.441406 0.808594 2.238281 0.484375 1.382812 Z M 0.113281 1.414062 "/></g></g></g><g fill="#3d5024" fill-opacity="1"><g transform="translate(305.557261, 159.06134)"><g><path d="M -0.175781 1.4375 L -0.734375 5.996094 L -0.371094 6.042969 C -0.0078125 5.199219 0.667969 5.027344 2.976562 5.308594 L 7.203125 5.828125 L 6.957031 7.828125 C 6.3125 13.066406 8.597656 16.117188 12.34375 16.578125 C 15.074219 16.914062 18.117188 15.402344 18.832031 9.570312 L 19.535156 3.855469 L 19.167969 3.8125 C 18.8125 4.625 18.128906 4.828125 15.820312 4.542969 L 3.261719 3 C 0.953125 2.71875 0.339844 2.355469 0.191406 1.480469 Z M 7.625 5.878906 L 18.632812 7.230469 C 18.621094 7.574219 18.59375 8.027344 18.546875 8.421875 C 17.988281 12.957031 15.011719 14.390625 12 14.019531 C 8.675781 13.613281 6.945312 11.429688 7.386719 7.824219 Z M 7.625 5.878906 "/></g></g></g><g fill="#3d5024" fill-opacity="1"><g transform="translate(303.63501, 174.618428)"><g><path d="M -0.40625 1.386719 L -4.121094 14.046875 L -1.101562 15.140625 L -0.957031 14.855469 C -2.71875 13.304688 -3.023438 11.914062 -2.253906 9.300781 L -1.304688 6.0625 C -1.074219 5.273438 -0.511719 4.964844 0.277344 5.195312 L 14.21875 9.285156 C 16.449219 9.941406 17.003906 10.367188 17 11.285156 L 17.355469 11.386719 L 18.648438 6.976562 L 18.292969 6.875 C 17.808594 7.621094 17.105469 7.707031 14.871094 7.054688 L 2.730469 3.492188 C 0.5 2.835938 -0.046875 2.378906 -0.0546875 1.492188 Z M -0.40625 1.386719 "/></g></g></g><g fill="#3d5024" fill-opacity="1"><g transform="translate(299.35354, 189.405264)"><g><path d="M -0.632812 1.300781 L -6.765625 13.871094 L -3.472656 15.730469 L -3.285156 15.472656 C -5.207031 13.398438 -5.136719 11.507812 -3.945312 9.058594 L -2.328125 5.746094 C -1.96875 5.007812 -1.359375 4.796875 -0.621094 5.15625 L 7.207031 8.976562 L 5.617188 12.238281 C 4.199219 15.144531 3.25 15.597656 1.953125 15.347656 L 1.804688 15.652344 L 5.65625 17.53125 L 5.804688 17.222656 C 4.808594 16.359375 4.582031 15.332031 6 12.425781 L 7.589844 9.160156 L 15.316406 12.929688 L 13.488281 16.675781 C 12.21875 19.277344 10.722656 20.410156 8.042969 20.207031 L 7.980469 20.527344 L 11.433594 21.863281 L 17.214844 10.003906 L 16.882812 9.84375 C 16.28125 10.496094 15.570312 10.464844 13.480469 9.445312 L 2.105469 3.898438 C 0.015625 2.878906 -0.445312 2.339844 -0.300781 1.460938 Z M -0.632812 1.300781 "/></g></g></g><g clip-path="url(#d782ff4ea3)"><g clip-path="url(#91fb7e2261)"><g clip-path="url(#ae162dfeeb)"><path fill="#ecf6dc" d="M 224.960938 309.8125 C 231.296875 306.484375 239.628906 302.109375 245.527344 295.136719 C 262.445312 275.144531 258.117188 235.253906 238.015625 214.796875 C 225.222656 201.785156 216.851562 207.253906 190.917969 195.214844 C 144.25 173.546875 139.066406 140.832031 118.75 143.515625 C 96.207031 146.496094 77.175781 190.136719 82.375 225.542969 C 85.480469 246.710938 96.617188 260.621094 115.609375 284.339844 C 129.167969 301.277344 139.941406 314.367188 158.558594 319.328125 C 171.683594 322.828125 184.195312 321.085938 192.289062 319.960938 C 209.875 317.519531 221.972656 311.375 224.960938 309.8125 Z M 224.960938 309.8125 " fill-opacity="1" fill-rule="nonzero"/></g></g></g><g clip-path="url(#179dcbc967)"><g clip-path="url(#1ba9342db3)"><g clip-path="url(#c9b0371f92)"><path fill="#ecf6dc" d="M 222.160156 83.925781 C 218.453125 83.8125 213.578125 83.660156 209.136719 85.304688 C 196.40625 90.011719 188.1875 109.113281 192.042969 123.464844 C 194.496094 132.597656 199.667969 132.265625 208.300781 144.3125 C 223.832031 165.984375 217.828125 182.066406 227.675781 186.035156 C 238.609375 190.441406 258.320312 175.605469 265.003906 158.304688 C 269 147.960938 267.523438 138.847656 265.003906 123.300781 C 263.203125 112.203125 261.679688 103.550781 254.542969 96.566406 C 249.515625 91.640625 243.425781 89.234375 239.488281 87.679688 C 230.929688 84.296875 223.90625 83.984375 222.160156 83.925781 Z M 222.160156 83.925781 " fill-opacity="1" fill-rule="nonzero"/></g></g></g><g clip-path="url(#1dc63b7541)"><g clip-path="url(#5c89537a74)"><g clip-path="url(#4c72247232)"><path fill="#3d5024" d="M 113.300781 346.261719 C 113.351562 345.765625 118.296875 337.648438 124.292969 328.226562 C 140.980469 302.003906 141.707031 300.164062 145.242188 275.011719 C 147.589844 258.296875 148.207031 255.9375 151.644531 250.5 C 152.878906 248.546875 155.183594 245.550781 156.769531 243.835938 C 159.160156 241.253906 160.125 239.808594 162.421875 235.355469 C 163.949219 232.398438 165.667969 229.230469 166.25 228.3125 C 167.578125 226.199219 167.589844 226.03125 166.335938 226.683594 C 162.347656 228.753906 163.144531 222.785156 167.207031 220.15625 C 169.488281 218.679688 177.074219 212.925781 177.667969 212.226562 C 177.925781 211.921875 178.703125 210.535156 179.398438 209.144531 C 181.507812 204.910156 182.5625 204.175781 186.554688 204.164062 C 187.804688 204.160156 188.839844 204.023438 188.855469 203.863281 C 188.976562 202.691406 188.304688 199.683594 187.917969 199.644531 C 186.652344 199.515625 181.164062 200.972656 179.046875 202 C 174.570312 204.167969 171.929688 205.175781 170.960938 205.085938 C 168.894531 204.894531 168.34375 202.273438 169.953125 200.300781 C 171.191406 198.78125 176.109375 194.761719 178.410156 193.386719 C 180.917969 191.886719 183.375 190.839844 185.996094 190.15625 L 188.023438 189.625 L 188.726562 184.617188 C 189.574219 178.59375 190.851562 173.757812 192.753906 169.378906 C 195.332031 163.453125 198.199219 159.785156 204.527344 154.316406 C 208.335938 151.027344 209.832031 149.53125 209.890625 148.953125 C 209.957031 148.3125 207.742188 148.527344 202.53125 149.667969 C 196.132812 151.066406 193.097656 151.125 190.078125 149.90625 C 187.125 148.714844 184.492188 145.644531 183.070312 141.738281 C 182.46875 140.085938 181.917969 138.363281 181.847656 137.90625 C 181.722656 137.109375 181.675781 137.09375 180.710938 137.597656 C 179.484375 138.234375 178.507812 137.886719 176.75 136.191406 L 175.460938 134.949219 L 175.328125 136.230469 C 175.21875 137.332031 173.441406 142.226562 172.433594 144.207031 C 172.175781 144.710938 172.316406 144.855469 173.15625 144.941406 C 174.886719 145.117188 176.925781 146.65625 180.132812 150.203125 C 181.808594 152.058594 183.910156 154.046875 184.804688 154.617188 C 187.660156 156.449219 187.855469 157.652344 185.421875 158.390625 C 184.441406 158.691406 184.007812 159.085938 183.753906 159.921875 C 183.320312 161.328125 180.820312 162.855469 178.109375 163.371094 C 175.894531 163.792969 171.894531 163.464844 168.703125 162.605469 C 167.046875 162.160156 166.386719 162.117188 166.015625 162.429688 C 165.527344 162.847656 164.164062 168.273438 163.898438 170.863281 C 163.664062 173.171875 163.929688 173.292969 171.71875 174.347656 C 183.53125 175.945312 187.804688 177.382812 187.835938 179.761719 C 187.855469 181.1875 186.90625 181.988281 183.78125 183.183594 C 178.074219 185.367188 171.109375 186.117188 165.296875 185.175781 C 157.183594 183.863281 149.789062 178.699219 141.457031 168.535156 C 139.132812 165.699219 136.792969 162.671875 136.261719 161.8125 L 135.292969 160.246094 L 135.5 163.621094 C 135.820312 168.871094 134.027344 186.191406 132.53125 192.335938 C 130.070312 202.429688 127.128906 210.992188 124.339844 216.199219 C 118.339844 227.382812 107.414062 234.265625 84.296875 241.429688 C 75.113281 244.277344 69.398438 246.382812 66.265625 248.078125 C 55.863281 253.703125 51.097656 262.582031 47.621094 282.792969 C 46.75 287.871094 46.632812 289.175781 46.9375 290.460938 C 47.292969 291.96875 47.34375 292.011719 49.027344 292.160156 C 51.066406 292.339844 54.136719 290.964844 65.097656 284.957031 C 75 279.53125 80.644531 277.402344 85.660156 277.199219 C 90.429688 277.007812 93.546875 278.324219 98.902344 282.785156 C 103.984375 287.011719 107.375 288.4375 110.441406 287.625 C 112.066406 287.195312 114.359375 285.21875 115.546875 283.230469 L 116.601562 281.46875 L 115.726562 280.347656 C 114.707031 279.042969 113.929688 276.730469 114.0625 275.40625 C 114.113281 274.894531 114.605469 274.050781 115.15625 273.53125 C 116.035156 272.695312 116.28125 272.636719 117.1875 273.058594 C 118.640625 273.734375 119.308594 275.753906 119.023438 278.601562 C 118.800781 280.789062 118.847656 280.964844 119.816406 281.597656 C 121.683594 282.816406 126.097656 284.269531 132.253906 285.699219 C 138.226562 287.082031 139.355469 287.605469 138.285156 288.480469 C 137.878906 288.808594 136.335938 288.550781 130.792969 287.230469 C 124.746094 285.789062 121.269531 284.597656 118.515625 283.027344 C 118.0625 282.769531 117.800781 282.984375 117.351562 283.984375 C 116.5 285.890625 112.992188 288.863281 110.929688 289.421875 C 107.171875 290.433594 103.316406 288.898438 97.523438 284.074219 C 96.046875 282.839844 94.011719 281.351562 93.003906 280.757812 C 87.191406 277.351562 80.484375 278.769531 66.339844 286.390625 C 54.46875 292.785156 54.238281 292.902344 52.09375 293.648438 C 49.390625 294.589844 46.910156 294.355469 45.925781 293.070312 C 44.757812 291.542969 44.714844 288.558594 45.777344 282.519531 C 49.109375 263.53125 53.675781 254.050781 62.234375 248.339844 C 66.363281 245.582031 70.792969 243.734375 80.796875 240.589844 C 96.488281 235.65625 102.800781 233.046875 109.964844 228.535156 C 117.605469 223.722656 122.097656 218.097656 125.496094 209.089844 C 129.257812 199.121094 131.3125 190.777344 132.679688 179.898438 C 134.277344 167.21875 134.101562 158.863281 132.121094 153.082031 C 130.347656 147.917969 130.144531 145.328125 130.902344 137.640625 C 131.609375 130.484375 132.042969 128.367188 135.660156 114.445312 C 136.671875 110.550781 137.523438 107.113281 137.554688 106.804688 C 137.65625 105.816406 134.492188 102.15625 133.445312 102.050781 C 131.042969 101.804688 127.757812 104.976562 125.878906 109.351562 C 124.945312 111.523438 124.6875 112.773438 124.222656 117.34375 C 123.609375 123.398438 123.96875 127.589844 125.253906 129.433594 L 125.980469 130.472656 L 126.496094 127.714844 C 127.382812 122.996094 128.949219 120.460938 130.871094 120.65625 C 133.316406 120.90625 133.527344 124.105469 131.328125 127.683594 C 130.605469 128.855469 129.507812 130.25 128.882812 130.78125 C 127.765625 131.734375 127.75 131.792969 127.609375 135.371094 C 127.449219 139.535156 127.84375 143.8125 129.242188 153.078125 C 130.511719 161.496094 130.691406 164.757812 130.089844 168.578125 C 129.570312 171.890625 128.332031 174.371094 126.902344 174.960938 C 125.460938 175.554688 123.679688 175.097656 122.738281 173.890625 C 120.679688 171.257812 120.207031 166.792969 120.917969 156.792969 C 121.519531 148.324219 122.457031 143.140625 124.558594 136.660156 C 125.300781 134.367188 125.867188 132.464844 125.8125 132.433594 C 124.046875 131.320312 123.671875 130.867188 123.039062 129.082031 C 121.398438 124.464844 121.839844 114.664062 123.933594 109.199219 C 125.042969 106.304688 127.183594 103.15625 128.855469 101.964844 C 129.597656 101.433594 130.144531 100.765625 130.066406 100.480469 C 129.898438 99.863281 133.175781 89.285156 135.371094 83.363281 C 144.328125 59.203125 158.152344 45.734375 176.605469 43.195312 C 184.175781 42.152344 192.191406 42.675781 196.625 44.5 C 198.8125 45.398438 200.996094 47.589844 201.820312 49.710938 C 203.566406 54.199219 201.386719 60.363281 197.476562 62.011719 C 196.398438 62.464844 195.210938 62.460938 190.210938 61.976562 C 183.394531 61.316406 183.664062 61.273438 175.09375 64.53125 C 166.527344 67.789062 162.285156 70.078125 157.578125 73.984375 C 153.824219 77.097656 151.460938 79.804688 148.984375 83.8125 C 145.808594 88.953125 145.804688 88.714844 149.070312 87.605469 C 158.230469 84.503906 163.464844 83.921875 166.511719 85.671875 C 168.851562 87.015625 172.910156 91.089844 173.464844 92.652344 C 173.730469 93.394531 173.882812 94.734375 173.804688 95.628906 C 173.679688 97.101562 173.800781 97.378906 175.113281 98.535156 C 175.992188 99.308594 176.859375 100.585938 177.308594 101.777344 C 177.957031 103.496094 178 104.195312 177.632812 107.46875 C 176.875 114.273438 174.835938 118.476562 169.777344 123.65625 C 165.941406 127.582031 165.550781 128.21875 166.449219 129.054688 C 166.984375 129.550781 167.8125 129.703125 170.390625 129.777344 C 174.199219 129.890625 178.1875 130.84375 179.8125 132.039062 C 181.132812 133.003906 181.164062 132.921875 180.71875 129.667969 C 180.292969 126.566406 180.527344 124.394531 181.34375 123.847656 C 182.070312 123.359375 191.285156 123.597656 198.238281 124.285156 C 202.074219 124.664062 202.460938 124.769531 204.019531 125.914062 C 206.992188 128.09375 207.375 130.484375 205.699219 136.40625 C 204.859375 139.371094 204.839844 140.644531 205.609375 142.511719 C 205.957031 143.355469 207.953125 144.902344 208.316406 144.605469 C 208.425781 144.515625 208.335938 143.519531 208.121094 142.386719 C 207.90625 141.257812 207.699219 138.203125 207.660156 135.605469 C 207.566406 129.578125 207.207031 127.777344 204.902344 121.71875 C 202.460938 115.300781 202.042969 113.03125 202.679688 109.648438 C 203.683594 104.339844 206.796875 99.480469 209.050781 99.707031 C 209.996094 99.804688 210.433594 100.292969 212.171875 103.195312 C 214.417969 106.945312 215.460938 108.410156 220.230469 114.507812 L 223.507812 118.699219 L 226.132812 117.101562 C 228.1875 115.851562 229.613281 115.332031 232.703125 114.71875 C 234.871094 114.285156 238.730469 113.480469 241.277344 112.929688 C 246.894531 111.71875 248.105469 111.769531 248.875 113.253906 C 249.359375 114.179688 249.34375 115.234375 248.785156 120.75 L 248.136719 127.171875 L 246.28125 130.042969 C 244.449219 132.878906 244.4375 132.914062 245.308594 133.003906 C 246.738281 133.148438 246.953125 134.296875 246.152344 137.539062 C 244.050781 146.046875 240.738281 149.363281 233.042969 150.652344 L 230.238281 151.121094 L 232.933594 151.21875 C 238.492188 151.421875 242.410156 153 243.828125 155.609375 C 244.621094 157.070312 246.816406 164.160156 246.949219 165.691406 C 247.050781 166.839844 247.480469 166.707031 240.058594 167.78125 C 235.464844 168.449219 231.324219 168.039062 229.320312 166.722656 C 227.886719 165.78125 227.855469 165.992188 229.140625 167.96875 C 230.207031 169.609375 230.507812 172.078125 229.863281 173.863281 C 229.160156 175.804688 226.425781 176.054688 221.867188 174.59375 C 218.445312 173.5 216.703125 172.351562 214.167969 169.523438 C 212.980469 168.203125 211.167969 166.546875 210.128906 165.84375 C 206.015625 163.054688 205.769531 160.828125 208.9375 155.054688 C 209.984375 153.148438 210.957031 151.429688 211.097656 151.238281 C 211.417969 150.800781 205.371094 156.011719 202.8125 158.382812 C 197.679688 163.136719 194.375 168.796875 192.167969 176.613281 C 191.25 179.867188 189.679688 189.257812 190.046875 189.292969 C 190.15625 189.304688 191.941406 189.136719 194.007812 188.917969 C 198.871094 188.410156 203.726562 188.578125 205.671875 189.328125 C 207.859375 190.167969 210.269531 193.039062 213.878906 199.097656 C 215.605469 202 218.253906 206.09375 219.761719 208.195312 C 226.507812 217.597656 227.09375 220.976562 225.25 239.839844 C 224.648438 246.007812 223.949219 255.011719 223.695312 259.855469 L 223.238281 268.660156 L 225.628906 271.125 C 230.90625 276.558594 237.164062 280.027344 246.710938 282.808594 C 249.144531 283.519531 253.28125 284.164062 262.5 285.269531 C 274.664062 286.726562 274.988281 286.785156 274.914062 287.511719 C 274.839844 288.238281 274.554688 288.234375 265.488281 287.421875 C 260.347656 286.964844 254.144531 286.203125 251.707031 285.734375 C 240.066406 283.496094 231.398438 279.421875 225.113281 273.242188 L 222.148438 270.324219 L 220.921875 272.453125 C 218.054688 277.433594 214.066406 278.089844 210.847656 274.113281 C 209.992188 273.054688 208.847656 271.09375 208.304688 269.753906 C 205.902344 263.832031 206.109375 255.25 208.679688 254.191406 C 211.097656 253.199219 213.664062 255.132812 218.039062 261.25 C 219.78125 263.679688 221.289062 265.601562 221.390625 265.515625 C 221.496094 265.429688 221.835938 261.003906 222.140625 255.679688 C 222.449219 250.355469 223.132812 242.050781 223.660156 237.226562 C 224.40625 230.386719 224.554688 227.675781 224.335938 224.917969 C 223.804688 218.160156 222.847656 215.722656 218.144531 209.15625 C 216.644531 207.058594 214.003906 202.976562 212.277344 200.078125 C 209.066406 194.695312 206.980469 192.007812 205.378906 191.207031 C 203.921875 190.476562 200.007812 190.246094 195.59375 190.628906 C 189.808594 191.132812 190.160156 190.996094 189.980469 192.804688 C 189.898438 193.664062 189.867188 195.007812 189.917969 195.789062 L 190.007812 197.210938 L 193.0625 197.292969 C 195.863281 197.371094 196.21875 197.460938 197.328125 198.398438 C 198.144531 199.085938 199 200.558594 199.96875 202.949219 C 202.398438 208.917969 201.730469 209.835938 196.285156 208.007812 C 194.417969 207.382812 191.21875 206.621094 189.175781 206.316406 C 184.589844 205.625 183.226562 206.015625 181.710938 208.449219 C 180.207031 210.867188 180.335938 211.09375 182.660156 210.085938 C 185.855469 208.703125 188.882812 208.285156 191.730469 208.832031 C 195.03125 209.46875 210.125 214.644531 210.414062 215.242188 C 210.542969 215.503906 210.421875 215.90625 210.144531 216.128906 C 209.75 216.453125 207.980469 215.972656 201.804688 213.859375 C 192.042969 210.515625 189.234375 209.960938 186.21875 210.765625 C 185.011719 211.085938 182.925781 211.914062 181.582031 212.601562 C 179.234375 213.800781 174.300781 216.847656 174.4375 217.011719 C 174.472656 217.058594 177.109375 216.484375 180.296875 215.742188 C 185.488281 214.535156 186.425781 214.429688 189.269531 214.714844 C 192.78125 215.070312 193.960938 215.515625 198.265625 218.109375 C 200.476562 219.445312 201.179688 220.058594 201.125 220.617188 C 201.015625 221.695312 199.910156 221.4375 197.152344 219.679688 C 194.230469 217.816406 191.320312 216.59375 189.335938 216.390625 C 187.277344 216.183594 183.714844 216.75 178.269531 218.148438 C 170.0625 220.253906 167.179688 221.617188 166.125 223.875 L 165.621094 224.957031 L 167.289062 224.140625 C 168.210938 223.691406 170.285156 222.835938 171.902344 222.238281 C 174.710938 221.199219 175.011719 221.167969 178.574219 221.550781 C 185.890625 222.335938 192.152344 225.324219 196.203125 229.964844 C 200.527344 234.917969 201.078125 238.78125 198.878906 248.753906 C 196.800781 258.167969 196.574219 264.558594 198.082031 271.277344 C 199.082031 275.746094 205.4375 292.425781 208.429688 298.441406 C 209.15625 299.902344 209.265625 300.445312 208.898438 300.746094 C 208.574219 301.011719 208.242188 301 207.878906 300.714844 C 206.75 299.828125 198.859375 280.804688 196.984375 274.441406 C 196.222656 271.863281 195.863281 271.179688 195.1875 271.011719 C 194.050781 270.726562 192.058594 268.308594 191.292969 266.285156 C 190.949219 265.378906 190.378906 262.996094 190.023438 260.988281 C 189.226562 256.507812 188.605469 254.816406 187.222656 253.394531 C 185.949219 252.082031 185.988281 252.085938 184.359375 252.871094 C 183.363281 253.347656 183.082031 253.691406 183.152344 254.347656 C 183.199219 254.820312 183.230469 256.316406 183.222656 257.671875 L 183.199219 260.136719 L 185.070312 261.007812 C 186.613281 261.726562 187.558594 262.65625 190.410156 266.253906 C 192.316406 268.65625 194.328125 271.433594 194.878906 272.425781 C 195.824219 274.121094 195.863281 274.421875 195.539062 277.585938 C 195.347656 279.433594 194.902344 281.648438 194.546875 282.507812 C 193.910156 284.046875 192.648438 285.40625 191.925781 285.335938 C 191.148438 285.253906 188.808594 282.203125 186.375 278.097656 L 183.847656 273.832031 L 183.125 278.628906 C 182.273438 284.273438 181.351562 286.71875 176.507812 296.195312 C 172.4375 304.160156 171.375 306.804688 170.671875 310.695312 C 170.363281 312.410156 169.691406 314.804688 169.175781 316.015625 C 168.371094 317.917969 155.195312 337.375 154.125 338.25 C 153.527344 338.734375 152.660156 337.65625 153.046875 336.910156 C 153.222656 336.566406 156.386719 331.933594 160.074219 326.613281 C 163.765625 321.292969 167.1875 315.960938 167.683594 314.765625 C 169.015625 311.554688 169.449219 306.007812 168.878906 299.414062 C 167.984375 289.042969 168.367188 282.9375 170.167969 278.882812 C 171.445312 276 176.90625 272.242188 180.898438 271.5 C 183.839844 270.949219 184.75 271.671875 187.972656 277.078125 C 191.046875 282.230469 192.007812 283.464844 192.347656 282.691406 C 193.417969 280.234375 193.699219 279.296875 193.902344 277.523438 C 194.039062 276.296875 193.933594 274.96875 193.628906 274.203125 C 192.835938 272.199219 186.964844 264.546875 185.269531 263.308594 C 182.859375 261.546875 180.332031 261.449219 176.320312 262.960938 C 174.5625 263.625 172.769531 264.347656 172.335938 264.566406 C 171.902344 264.789062 170.738281 265.378906 169.75 265.878906 C 168.761719 266.382812 166.898438 267.527344 165.609375 268.421875 C 163.347656 269.988281 162.136719 270.195312 162.261719 268.988281 C 162.3125 268.480469 166.210938 265.746094 169.167969 264.148438 C 169.933594 263.730469 170.847656 263.070312 171.195312 262.683594 C 173.820312 259.738281 182.273438 251.863281 183.390625 251.320312 C 185.421875 250.332031 187.199219 250.636719 188.683594 252.234375 C 190.246094 253.914062 190.929688 255.703125 191.84375 260.511719 C 192.25 262.644531 192.789062 264.933594 193.046875 265.601562 C 193.542969 266.898438 195.050781 269.046875 195.496094 269.089844 C 195.644531 269.105469 195.609375 268.210938 195.417969 267.101562 C 195.230469 265.992188 195.195312 262.71875 195.339844 259.828125 L 195.609375 254.570312 L 193.773438 250.308594 C 190.871094 243.5625 188.871094 241.484375 184.867188 241.050781 C 182.886719 240.835938 182.113281 240.984375 178.902344 242.203125 C 174.851562 243.738281 169.441406 246.894531 162.964844 251.496094 C 159.089844 254.25 157.65625 254.816406 157.789062 253.542969 C 157.882812 252.585938 169.125 244.933594 174.40625 242.230469 C 179.636719 239.550781 181.863281 238.921875 185.085938 239.21875 C 189.660156 239.644531 192.167969 241.960938 195.023438 248.402344 L 196.378906 251.464844 L 197.074219 248.410156 L 197.765625 245.359375 L 195.046875 241.9375 C 186.917969 231.710938 182.054688 230.652344 170.542969 236.589844 C 161.941406 241.027344 157.667969 244.625 153.546875 250.890625 C 150.019531 256.261719 149.054688 260.007812 146.65625 277.730469 C 144.675781 292.371094 143.425781 297.667969 140.273438 304.820312 C 137.964844 310.054688 135.429688 314.320312 124.796875 330.894531 C 114.800781 346.472656 113.042969 348.824219 113.300781 346.265625 Z M 174.96875 295.3125 C 179.484375 286.378906 180.898438 282.542969 181.5 277.613281 C 181.753906 275.53125 181.847656 273.6875 181.710938 273.519531 C 181.105469 272.769531 175.015625 275.816406 173.125 277.8125 C 171.25 279.792969 170.101562 284.792969 170.214844 290.492188 C 170.3125 295.363281 170.96875 303.421875 171.222656 302.820312 C 171.339844 302.542969 173.023438 299.164062 174.96875 295.3125 Z M 117.074219 275.492188 C 116.890625 275.042969 116.570312 274.761719 116.363281 274.859375 C 115.78125 275.144531 115.78125 276.402344 116.367188 277.792969 L 116.898438 279.054688 L 117.15625 277.683594 C 117.296875 276.925781 117.261719 275.941406 117.074219 275.492188 Z M 217.519531 273.867188 C 218.84375 272.75 220.621094 270.046875 220.746094 268.960938 C 220.785156 268.628906 219.179688 266.070312 217.179688 263.277344 C 211.070312 254.730469 209.078125 253.832031 208.519531 259.355469 C 208.0625 263.863281 209.933594 270.484375 212.449219 273.269531 C 214.199219 275.199219 215.730469 275.382812 217.519531 273.867188 Z M 180.550781 260.039062 C 181.503906 260.125 181.507812 260.113281 181.472656 257.835938 C 181.453125 256.574219 181.378906 255.472656 181.3125 255.390625 C 181.207031 255.261719 178.617188 257.703125 175.859375 260.53125 L 175.132812 261.277344 L 177.363281 260.613281 C 178.589844 260.25 180.023438 259.992188 180.550781 260.039062 Z M 198.320312 240 C 198.410156 237.011719 197.441406 234.277344 195.496094 232.007812 C 194.445312 230.78125 193.546875 230.300781 189.34375 228.707031 C 183.578125 226.515625 180.902344 226.101562 178.519531 227.027344 C 176.855469 227.675781 173.15625 230.566406 169.164062 234.34375 L 166.871094 236.519531 L 169.054688 235.320312 C 177.765625 230.550781 183.671875 229.9375 188.980469 233.253906 C 190.632812 234.289062 192.34375 235.90625 194.65625 238.625 C 196.472656 240.765625 198.023438 242.527344 198.101562 242.546875 C 198.179688 242.5625 198.277344 241.417969 198.320312 240 Z M 168.921875 232.050781 C 176.03125 225.503906 178.1875 224.371094 182.777344 224.753906 C 185.082031 224.945312 185.242188 224.914062 184.125 224.507812 C 183.421875 224.253906 181.347656 223.789062 179.511719 223.472656 C 176.601562 222.972656 175.878906 222.980469 173.875 223.515625 C 172.613281 223.851562 171.160156 224.5 170.648438 224.949219 C 170.136719 225.398438 168.75 227.484375 167.5625 229.585938 C 164.8125 234.453125 163.460938 237.082031 163.929688 236.648438 C 164.128906 236.460938 166.378906 234.390625 168.921875 232.050781 Z M 186.582031 225.316406 C 186.46875 225.179688 186.148438 225.136719 185.867188 225.214844 C 185.558594 225.304688 185.636719 225.402344 186.070312 225.464844 C 186.464844 225.519531 186.695312 225.453125 186.582031 225.316406 Z M 198.285156 203.710938 C 196.660156 199.636719 196.097656 199.164062 192.851562 199.136719 C 191.484375 199.125 190.308594 199.160156 190.242188 199.214844 C 190.175781 199.269531 190.265625 200.554688 190.441406 202.074219 C 190.753906 204.769531 190.789062 204.839844 191.914062 204.972656 C 192.550781 205.042969 194.46875 205.550781 196.179688 206.09375 C 197.886719 206.640625 199.347656 207.046875 199.421875 207 C 199.496094 206.957031 198.984375 205.476562 198.285156 203.710938 Z M 176.121094 201.273438 C 180.566406 199.203125 182.816406 198.46875 186.34375 197.953125 C 187.851562 197.730469 188.332031 197.507812 188.253906 197.058594 C 188.199219 196.730469 188.144531 195.398438 188.136719 194.097656 C 188.128906 192.542969 187.957031 191.722656 187.636719 191.691406 C 187.371094 191.664062 185.5 192.269531 183.480469 193.035156 C 180.347656 194.222656 179.167969 194.945312 175.394531 197.996094 C 172.464844 200.363281 170.949219 201.839844 170.894531 202.378906 C 170.847656 202.828125 171.03125 203.214844 171.296875 203.242188 C 171.566406 203.269531 173.738281 202.382812 176.121094 201.273438 Z M 173.46875 183.617188 C 178.636719 183.089844 185.382812 181.070312 185.914062 179.894531 C 186.394531 178.824219 177.820312 176.742188 169.386719 175.882812 C 167.003906 175.640625 164.539062 175.199219 163.910156 174.90625 C 162.492188 174.246094 161.820312 172.648438 162.070312 170.535156 C 162.300781 168.539062 163.773438 162.503906 164.214844 161.730469 C 164.480469 161.265625 164.226562 161.082031 162.867188 160.75 C 159.199219 159.863281 154.84375 155.96875 154.292969 153.078125 C 154.128906 152.203125 153.679688 151.171875 153.300781 150.78125 C 152.320312 149.78125 152.902344 149.230469 156.417969 147.847656 C 158.039062 147.207031 160.957031 146.035156 162.90625 145.242188 C 166.1875 143.90625 166.601562 143.828125 168.484375 144.191406 L 170.519531 144.585938 L 171.894531 141.105469 C 172.652344 139.191406 173.214844 137.554688 173.144531 137.46875 C 173.074219 137.386719 172.660156 137.464844 172.222656 137.644531 C 171.027344 138.136719 167.734375 137.679688 166.320312 136.824219 C 164.414062 135.671875 162.734375 133.355469 162.980469 132.230469 C 163.160156 131.425781 163.351562 131.320312 164.296875 131.507812 C 166.644531 131.976562 169.234375 132.207031 171.792969 132.175781 C 174.652344 132.140625 175.519531 132.527344 178.433594 135.121094 C 179.859375 136.386719 180.828125 136.039062 179.804688 134.625 C 178.519531 132.855469 177.027344 132.355469 171.117188 131.71875 L 165.5625 131.121094 L 164.78125 130 C 164.351562 129.382812 164.023438 128.628906 164.054688 128.324219 C 164.171875 127.160156 165.476562 125.363281 168.328125 122.433594 C 169.957031 120.761719 171.800781 118.574219 172.425781 117.566406 C 174.808594 113.734375 176.417969 107.589844 175.945312 104.117188 C 175.582031 101.40625 173.433594 98.265625 173.5 100.542969 C 173.515625 101.011719 173.570312 102.867188 173.628906 104.667969 C 173.707031 107.09375 173.605469 108.132812 173.234375 108.683594 C 172.101562 110.367188 166.707031 111.4375 161.796875 110.953125 C 158.015625 110.578125 155.058594 109.210938 152.160156 106.496094 C 150.855469 105.273438 149.070312 103.652344 148.1875 102.890625 C 147.304688 102.132812 146.214844 101.195312 145.769531 100.808594 C 145.089844 100.222656 145.046875 100.035156 145.507812 99.664062 C 145.96875 99.292969 146.476562 99.480469 148.542969 100.769531 C 151.683594 102.730469 157.828125 105.441406 161.21875 106.355469 C 162.648438 106.746094 165.632812 107.191406 167.847656 107.351562 L 171.875 107.640625 L 171.785156 106.3125 C 171.738281 105.578125 171.707031 103.964844 171.71875 102.71875 C 171.773438 97.785156 172.195312 98.460938 166.410156 94.28125 C 158.480469 88.546875 157.578125 88.285156 150.429688 89.621094 C 147.820312 90.109375 146.816406 90.15625 146.363281 89.804688 C 145.832031 89.398438 145.613281 89.699219 144.488281 92.378906 C 141.292969 100.003906 136.101562 118.425781 133.523438 131.304688 C 132.589844 135.984375 132.03125 143.566406 132.417969 146.421875 C 133.253906 152.632812 136.3125 159.144531 141.496094 165.746094 C 152.195312 179.371094 161.914062 184.804688 173.472656 183.621094 Z M 127.4375 171.453125 C 128.089844 170.152344 128.289062 169.054688 128.464844 165.796875 C 128.640625 162.507812 128.429688 160.082031 127.332031 152.75 C 126.589844 147.796875 125.953125 142.820312 125.910156 141.695312 C 125.863281 140.355469 125.714844 139.820312 125.484375 140.148438 C 124.300781 141.835938 122.257812 157.253906 122.378906 163.582031 C 122.542969 172.234375 125.070312 176.164062 127.4375 171.453125 Z M 228.042969 172.976562 C 229.152344 171.605469 228.175781 169.332031 224.96875 165.832031 C 219.117188 159.445312 217.691406 157.640625 217.78125 156.757812 C 217.957031 155.011719 219.578125 155.84375 224.011719 159.964844 C 228.648438 164.269531 231.179688 165.910156 233.75 166.273438 C 235.082031 166.460938 244.128906 165.5625 244.789062 165.179688 C 245.15625 164.964844 242.496094 156.921875 241.738281 155.953125 C 240.015625 153.742188 238.53125 153.445312 225.363281 152.664062 C 219.066406 152.289062 217.863281 152.125 216.707031 151.496094 C 215.144531 150.640625 214.984375 149.351562 216.394531 148.988281 C 216.875 148.863281 219.550781 148.878906 222.335938 149.023438 C 227.859375 149.3125 233.355469 148.902344 236.117188 148.003906 C 238.597656 147.191406 240.980469 145.320312 242.105469 143.289062 C 243.042969 141.609375 245.03125 135.285156 244.738281 134.925781 C 244.660156 134.828125 243.410156 135.261719 241.964844 135.886719 C 239.601562 136.910156 239.285156 136.960938 238.824219 136.394531 C 238.359375 135.824219 238.589844 135.496094 241.113281 133.132812 C 242.65625 131.6875 244.457031 129.605469 245.113281 128.503906 C 246.175781 126.722656 246.378906 125.949219 246.945312 121.542969 C 247.691406 115.75 247.640625 113.992188 246.726562 113.902344 C 246.375 113.867188 244.265625 114.230469 242.039062 114.707031 C 239.8125 115.1875 235.933594 116.007812 233.425781 116.527344 C 229.296875 117.378906 228.640625 117.636719 226.558594 119.214844 L 224.253906 120.960938 L 224.691406 123.070312 C 225.246094 125.734375 224.777344 130.605469 223.683594 133.589844 C 222.511719 136.78125 219.238281 142.050781 217.390625 143.722656 C 215.398438 145.523438 214.050781 145.425781 213.699219 143.457031 C 213.238281 140.878906 217.335938 128.941406 220.546875 123.511719 L 222.105469 120.867188 L 221.117188 119.152344 C 220.574219 118.207031 218.550781 115.40625 216.617188 112.925781 C 214.683594 110.449219 212.160156 106.816406 211.007812 104.855469 L 208.914062 101.292969 L 207.964844 102.265625 C 207.441406 102.800781 206.421875 104.582031 205.695312 106.222656 C 204.605469 108.699219 204.367188 109.664062 204.300781 111.863281 C 204.230469 114.234375 204.464844 115.164062 206.484375 120.496094 C 209.007812 127.167969 209.367188 128.988281 209.511719 135.792969 C 209.566406 138.390625 209.835938 141.644531 210.109375 143.023438 C 210.382812 144.398438 210.582031 145.808594 210.546875 146.148438 C 210.515625 146.492188 211.109375 147.542969 211.867188 148.480469 C 213.511719 150.515625 213.480469 150.699219 210.679688 155.789062 C 208.65625 159.457031 208.171875 161.234375 208.898438 162.3125 C 209.140625 162.675781 210.308594 163.65625 211.488281 164.492188 C 212.667969 165.324219 214.269531 166.738281 215.050781 167.628906 C 217.609375 170.566406 218.792969 171.445312 221.511719 172.460938 C 225.371094 173.902344 227.175781 174.042969 228.042969 172.976562 Z M 178.359375 161.46875 C 179.917969 161.011719 181.992188 159.863281 182.035156 159.441406 C 182.050781 159.269531 181.398438 158.78125 180.582031 158.355469 C 179.082031 157.574219 170.703125 154.503906 169.816406 154.414062 C 169.507812 154.382812 169.285156 154.917969 169.175781 155.953125 C 169.074219 156.933594 168.609375 158.097656 167.964844 159.003906 L 166.917969 160.46875 L 169.921875 161.136719 C 173.34375 161.902344 176.484375 162.023438 178.359375 161.46875 Z M 165.878906 158.5625 C 166.957031 157.679688 167.890625 155.1875 167.5 154.234375 C 167.160156 153.414062 164.589844 152.75 159.90625 152.277344 C 156.21875 151.902344 155.859375 152.023438 156.414062 153.425781 C 156.992188 154.890625 158.703125 156.609375 160.871094 157.902344 C 163.058594 159.207031 164.804688 159.4375 165.878906 158.5625 Z M 183.316406 157.050781 C 184.496094 156.859375 184.4375 156.515625 183.074219 155.683594 C 182.441406 155.296875 180.773438 153.71875 179.375 152.171875 C 174.671875 146.992188 173.429688 146.1875 171.875 147.3125 C 170.804688 148.089844 169.792969 149.902344 169.652344 151.304688 C 169.542969 152.367188 169.582031 152.390625 173.472656 153.632812 C 175.632812 154.320312 178.457031 155.375 179.746094 155.972656 C 181.035156 156.570312 182.167969 157.089844 182.269531 157.125 C 182.371094 157.160156 182.839844 157.128906 183.316406 157.050781 Z M 167.8125 150.820312 C 167.875 150.210938 168.277344 149.039062 168.707031 148.214844 C 169.449219 146.796875 169.457031 146.699219 168.84375 146.148438 C 168.492188 145.828125 167.910156 145.539062 167.554688 145.503906 C 166.871094 145.4375 163.953125 146.5625 158.941406 148.828125 L 155.960938 150.179688 L 159.535156 150.425781 C 161.503906 150.5625 164.019531 150.925781 165.128906 151.230469 C 166.242188 151.539062 167.273438 151.824219 167.425781 151.863281 C 167.578125 151.898438 167.75 151.433594 167.8125 150.820312 Z M 202.292969 147.8125 L 207.34375 146.65625 L 205.78125 145.390625 C 203.390625 143.453125 202.953125 142.027344 203.585938 138.210938 C 203.871094 136.476562 204.3125 134.101562 204.566406 132.933594 C 205.148438 130.261719 204.742188 128.800781 203.054688 127.5 C 201.933594 126.632812 201.308594 126.472656 197.675781 126.121094 C 195.414062 125.898438 191.070312 125.613281 188.023438 125.484375 L 182.480469 125.246094 L 182.363281 126.402344 C 182.171875 128.34375 183.703125 137.953125 184.625 140.59375 C 185.742188 143.777344 187.589844 146.28125 189.832031 147.652344 C 192.476562 149.261719 195.792969 149.308594 202.292969 147.8125 Z M 229.011719 151.101562 C 228.765625 150.972656 228.347656 150.929688 228.078125 151.007812 C 227.8125 151.085938 228.011719 151.191406 228.527344 151.242188 C 229.039062 151.296875 229.257812 151.230469 229.011719 151.101562 Z M 218.535156 139.410156 C 220.859375 135.898438 222.5625 131.867188 222.953125 128.957031 C 223.332031 126.15625 223.175781 123.460938 222.652344 123.714844 C 221.625 124.214844 216.867188 136.070312 215.792969 140.808594 C 215.300781 142.980469 215.300781 142.980469 216.136719 142.375 C 216.597656 142.042969 217.675781 140.707031 218.535156 139.410156 Z M 172.941406 135.195312 C 174.980469 134.066406 174.367188 133.859375 169.425781 134.007812 C 166.039062 134.113281 165.796875 134.171875 166.453125 134.738281 C 168.367188 136.390625 170.503906 136.542969 172.941406 135.191406 Z M 130.148438 126.074219 C 130.898438 124.691406 131.238281 122.582031 130.71875 122.527344 C 130.230469 122.480469 128.910156 125.179688 128.460938 127.148438 C 128.082031 128.808594 128.089844 128.839844 128.769531 128.09375 C 129.15625 127.667969 129.773438 126.761719 130.148438 126.074219 Z M 141.125 96.113281 C 145.808594 82.945312 151.890625 74.734375 161.257812 68.933594 C 165.664062 66.203125 173.425781 62.8125 180.152344 60.679688 L 184.050781 59.445312 L 190.09375 60.054688 C 195.605469 60.609375 196.234375 60.605469 197.269531 60 C 199.539062 58.667969 200.988281 54.992188 200.480469 51.855469 C 200.140625 49.746094 198.019531 47.09375 195.953125 46.191406 C 190.199219 43.675781 177.234375 44.042969 169.042969 46.949219 C 163.980469 48.75 160.925781 50.484375 156.675781 53.988281 C 146.988281 61.96875 140.152344 73.707031 133.859375 93.167969 C 132.789062 96.480469 131.886719 99.429688 131.855469 99.71875 C 131.820312 100.09375 132.28125 100.296875 133.460938 100.414062 C 135.1875 100.589844 137.171875 102.023438 137.980469 103.683594 C 138.320312 104.375 138.40625 104.296875 138.816406 102.886719 C 139.066406 102.023438 140.105469 98.976562 141.125 96.113281 Z M 171.953125 94.910156 C 172.101562 93.171875 170.421875 90.949219 166.828125 88.125 C 165.359375 86.96875 164.757812 86.734375 162.832031 86.5625 C 161.585938 86.457031 159.875 86.5 159.027344 86.667969 L 157.488281 86.976562 L 159.257812 87.625 C 161.304688 88.371094 163.730469 89.90625 168.171875 93.257812 C 169.90625 94.570312 171.453125 95.667969 171.605469 95.695312 C 171.757812 95.730469 171.914062 95.375 171.953125 94.910156 Z M 171.953125 94.910156 " fill-opacity="1" fill-rule="nonzero"/></g></g></g><g fill="#3d5024" fill-opacity="1"><g transform="translate(226.225053, 246.814937)"><g><path d="M 4.78125 0 L 23.910156 0 C 46.695312 0 54.574219 -11.066406 54.386719 -21.566406 C 54.292969 -30.753906 47.539062 -38.351562 32.257812 -39.101562 C 42.945312 -41.070312 47.070312 -46.882812 47.070312 -53.261719 C 47.070312 -60.855469 41.164062 -65.636719 26.722656 -65.636719 L 4.78125 -65.636719 L 4.78125 -64.417969 C 7.59375 -63.574219 8.53125 -61.417969 8.53125 -53.730469 L 8.53125 -11.910156 C 8.53125 -4.21875 7.59375 -2.0625 4.78125 -1.21875 Z M 16.222656 -9.5625 L 16.222656 -37.882812 L 25.785156 -37.882812 C 39.851562 -37.882812 45.851562 -30.003906 45.851562 -19.222656 C 45.851562 -8.8125 40.039062 -1.40625 24.753906 -1.40625 L 21.097656 -1.40625 C 17.066406 -1.40625 16.222656 -2.8125 16.222656 -9.5625 Z M 16.222656 -39.289062 L 16.222656 -64.230469 L 23.347656 -64.230469 C 33.007812 -64.230469 38.539062 -59.355469 38.539062 -51.570312 C 38.539062 -44.726562 34.226562 -39.289062 24.941406 -39.289062 Z M 16.222656 -39.289062 "/></g></g></g><g fill="#3d5024" fill-opacity="1"><g transform="translate(251.935682, 279.775781)"><g><path d="M 26.722656 0.9375 C 37.789062 0.9375 48.664062 -6.1875 48.664062 -17.910156 C 48.664062 -28.503906 38.914062 -32.632812 28.503906 -36.757812 C 20.535156 -40.039062 10.878906 -43.601562 10.878906 -52.414062 C 10.878906 -60.386719 17.347656 -64.792969 24.941406 -64.792969 C 35.632812 -64.792969 42.195312 -58.980469 45.664062 -50.820312 L 46.601562 -51.101562 L 46.226562 -61.980469 C 42.570312 -63.949219 36.476562 -66.292969 27.941406 -66.292969 C 14.160156 -66.292969 5.0625 -59.355469 5.0625 -48.382812 C 5.0625 -38.445312 12.097656 -34.507812 23.160156 -30.097656 C 31.035156 -26.910156 42.570312 -22.597656 42.570312 -13.222656 C 42.570312 -5.625 36.101562 -0.75 28.597656 -0.75 C 15.566406 -0.75 8.4375 -9.09375 4.78125 -18.941406 L 3.75 -18.753906 L 4.21875 -5.71875 C 8.625 -2.53125 16.878906 0.9375 26.722656 0.9375 Z M 26.722656 0.9375 "/></g></g></g><g fill="#3d5024" fill-opacity="1"><g transform="translate(45.635736, 314.871195)"><g><path d="M 5.335938 0.195312 C 7.425781 0.195312 8.949219 -1.191406 9.945312 -2.558594 L 9.769531 -2.734375 C 8.871094 -1.71875 7.796875 -1.035156 6.292969 -1.035156 C 3.75 -1.035156 2.089844 -2.871094 2.089844 -5.550781 C 2.089844 -5.863281 2.109375 -6.15625 2.148438 -6.449219 L 9.789062 -6.449219 C 9.730469 -8.304688 8.304688 -9.90625 5.84375 -9.90625 C 3.105469 -9.90625 0.703125 -7.777344 0.703125 -4.589844 C 0.703125 -1.367188 3.183594 0.195312 5.335938 0.195312 Z M 2.207031 -6.703125 C 2.519531 -8.34375 3.535156 -9.574219 5.199219 -9.554688 C 6.976562 -9.554688 8.03125 -8.011719 8.226562 -6.703125 Z M 2.207031 -6.703125 "/></g></g></g><g fill="#3d5024" fill-opacity="1"><g transform="translate(55.63837, 314.871195)"><g><path d="M 4.414062 0.175781 C 6.761719 0.15625 7.992188 -1.230469 7.992188 -2.871094 C 7.992188 -4.824219 6.195312 -5.277344 4.707031 -5.765625 C 3.164062 -6.273438 1.914062 -6.78125 1.914062 -8.011719 C 1.914062 -9.007812 2.773438 -9.652344 4.101562 -9.652344 C 5.492188 -9.652344 6.742188 -8.753906 7.367188 -7.347656 L 7.5625 -7.386719 L 7.484375 -9.378906 C 6.878906 -9.632812 5.726562 -9.90625 4.453125 -9.90625 C 2.1875 -9.90625 0.898438 -8.714844 0.898438 -7.171875 C 0.898438 -5.394531 2.226562 -4.882812 4.082031 -4.296875 C 5.589844 -3.808594 6.957031 -3.359375 6.957031 -1.953125 C 6.957031 -0.859375 6.058594 -0.136719 4.84375 -0.136719 C 3.066406 -0.15625 1.679688 -1.269531 0.859375 -3.125 L 0.683594 -3.085938 L 0.859375 -0.722656 C 1.503906 -0.292969 2.851562 0.175781 4.414062 0.175781 Z M 4.414062 0.175781 "/></g></g></g><g fill="#3d5024" fill-opacity="1"><g transform="translate(63.843634, 314.871195)"><g><path d="M 3.691406 0.195312 C 4.84375 0.195312 5.84375 -0.644531 6.683594 -1.601562 L 6.507812 -1.777344 C 5.863281 -1.015625 5.179688 -0.761719 4.628906 -0.761719 C 3.789062 -0.761719 3.242188 -1.269531 3.242188 -2.597656 L 3.242188 -9.496094 L 6.117188 -9.496094 L 6.214844 -9.769531 L 3.242188 -9.769531 L 3.242188 -12.171875 L 2.96875 -12.171875 L 0.46875 -9.769531 L 0.46875 -9.496094 L 1.71875 -9.496094 L 1.71875 -2.597656 C 1.71875 -0.566406 2.460938 0.195312 3.691406 0.195312 Z M 3.691406 0.195312 "/></g></g></g><g fill="#3d5024" fill-opacity="1"><g transform="translate(70.075699, 314.871195)"><g><path d="M 2.1875 0.136719 C 2.734375 0.136719 3.183594 -0.351562 3.183594 -0.917969 C 3.183594 -1.484375 2.734375 -1.953125 2.1875 -1.953125 C 1.640625 -1.953125 1.171875 -1.484375 1.171875 -0.917969 C 1.171875 -0.351562 1.640625 0.136719 2.1875 0.136719 Z M 2.1875 0.136719 "/></g></g></g><g fill="#3d5024" fill-opacity="1"><g transform="translate(73.94384, 314.871195)"><g/></g></g><g fill="#3d5024" fill-opacity="1"><g transform="translate(77.558005, 314.871195)"><g><path d="M 0.0976562 -0.273438 L 0.0976562 0 L 8.675781 0 L 8.96875 -2.734375 L 8.773438 -2.753906 C 8.421875 -1.679688 8.011719 -1.308594 6.078125 -1.308594 L 1.621094 -1.308594 C 4.003906 -3.417969 8.558594 -6.976562 8.539062 -10.667969 C 8.519531 -12.660156 7.09375 -13.8125 5.375 -13.8125 C 3.632812 -13.8125 2.34375 -12.914062 1.269531 -11.625 L 1.425781 -11.449219 C 2.246094 -12.367188 3.28125 -12.796875 4.296875 -12.796875 C 5.804688 -12.796875 6.800781 -11.800781 6.800781 -10.179688 C 6.800781 -6.527344 2.792969 -2.871094 0.0976562 -0.273438 Z M 0.0976562 -0.273438 "/></g></g></g><g fill="#3d5024" fill-opacity="1"><g transform="translate(86.779174, 314.871195)"><g><path d="M 6.742188 0.195312 C 9.730469 0.195312 12.601562 -2.480469 12.601562 -6.742188 C 12.601562 -11.507812 9.378906 -13.8125 6.605469 -13.8125 C 3.59375 -13.8125 0.722656 -11.136719 0.722656 -6.878906 C 0.722656 -2.109375 3.964844 0.195312 6.742188 0.195312 Z M 2.304688 -8.050781 C 2.324219 -11.175781 3.554688 -13.421875 5.960938 -13.421875 C 9.027344 -13.421875 11.039062 -9.476562 11.019531 -5.550781 C 11 -2.441406 9.789062 -0.195312 7.425781 -0.195312 C 4.296875 -0.195312 2.285156 -4.140625 2.304688 -8.050781 Z M 2.304688 -8.050781 "/></g></g></g><g fill="#3d5024" fill-opacity="1"><g transform="translate(99.61462, 314.871195)"><g><path d="M 0.0976562 -0.273438 L 0.0976562 0 L 8.675781 0 L 8.96875 -2.734375 L 8.773438 -2.753906 C 8.421875 -1.679688 8.011719 -1.308594 6.078125 -1.308594 L 1.621094 -1.308594 C 4.003906 -3.417969 8.558594 -6.976562 8.539062 -10.667969 C 8.519531 -12.660156 7.09375 -13.8125 5.375 -13.8125 C 3.632812 -13.8125 2.34375 -12.914062 1.269531 -11.625 L 1.425781 -11.449219 C 2.246094 -12.367188 3.28125 -12.796875 4.296875 -12.796875 C 5.804688 -12.796875 6.800781 -11.800781 6.800781 -10.179688 C 6.800781 -6.527344 2.792969 -2.871094 0.0976562 -0.273438 Z M 0.0976562 -0.273438 "/></g></g></g><g fill="#3d5024" fill-opacity="1"><g transform="translate(108.835789, 314.871195)"><g><path d="M 0.605469 2.480469 L 0.722656 2.734375 C 4.863281 0.546875 8.363281 -1.992188 8.363281 -5.277344 C 8.363281 -7.484375 6.410156 -8.128906 5.140625 -8.128906 C 4.6875 -8.128906 4.335938 -8.070312 4.023438 -7.972656 C 5.882812 -8.910156 7.210938 -9.789062 7.210938 -11.527344 C 7.210938 -12.71875 6.234375 -13.8125 4.589844 -13.8125 C 3.007812 -13.8125 1.816406 -13.03125 0.683594 -11.761719 L 0.859375 -11.585938 C 1.699219 -12.445312 2.65625 -12.835938 3.59375 -12.835938 C 4.84375 -12.835938 5.667969 -12.152344 5.667969 -10.980469 C 5.667969 -9.476562 4.667969 -8.460938 2.8125 -7.601562 L 2.890625 -7.40625 C 3.320312 -7.621094 3.789062 -7.738281 4.21875 -7.738281 C 5.394531 -7.738281 6.644531 -7.191406 6.644531 -4.941406 C 6.644531 -2.539062 4.355469 0.566406 0.605469 2.480469 Z M 0.605469 2.480469 "/></g></g></g><g clip-path="url(#d9597d619e)"><path fill="#3d5024" d="M 92.527344 79.75 C 92.617188 80.570312 92.773438 81.375 93 82.171875 C 93.226562 82.964844 93.519531 83.734375 93.875 84.476562 C 94.230469 85.21875 94.648438 85.929688 95.125 86.601562 C 95.601562 87.277344 96.132812 87.90625 96.714844 88.488281 C 97.300781 89.070312 97.925781 89.601562 98.601562 90.078125 C 99.273438 90.554688 99.984375 90.972656 100.726562 91.328125 C 101.472656 91.683594 102.238281 91.976562 103.03125 92.203125 C 103.828125 92.429688 104.632812 92.585938 105.453125 92.675781 C 110.675781 93.199219 115.910156 93.4375 121.15625 93.394531 C 115.910156 93.351562 110.675781 93.589844 105.453125 94.109375 C 104.632812 94.199219 103.824219 94.355469 103.03125 94.582031 C 102.238281 94.808594 101.46875 95.101562 100.726562 95.457031 C 99.980469 95.816406 99.273438 96.230469 98.601562 96.707031 C 97.925781 97.183594 97.296875 97.714844 96.714844 98.300781 C 96.132812 98.882812 95.601562 99.511719 95.125 100.183594 C 94.648438 100.859375 94.230469 101.566406 93.875 102.308594 C 93.519531 103.054688 93.226562 103.824219 93 104.617188 C 92.773438 105.410156 92.617188 106.214844 92.527344 107.035156 C 92.007812 112.257812 91.765625 117.492188 91.8125 122.738281 C 91.855469 117.492188 91.613281 112.257812 91.09375 107.035156 C 91.003906 106.214844 90.847656 105.410156 90.621094 104.617188 C 90.394531 103.824219 90.101562 103.054688 89.746094 102.308594 C 89.390625 101.566406 88.972656 100.855469 88.496094 100.183594 C 88.019531 99.511719 87.488281 98.882812 86.90625 98.296875 C 86.320312 97.714844 85.691406 97.183594 85.019531 96.707031 C 84.347656 96.230469 83.636719 95.8125 82.894531 95.457031 C 82.148438 95.101562 81.382812 94.808594 80.585938 94.582031 C 79.792969 94.355469 78.988281 94.199219 78.167969 94.109375 C 72.945312 93.589844 67.710938 93.351562 62.464844 93.394531 C 67.710938 93.4375 72.945312 93.199219 78.167969 92.675781 C 78.988281 92.585938 79.792969 92.429688 80.585938 92.203125 C 81.382812 91.976562 82.148438 91.6875 82.894531 91.328125 C 83.636719 90.972656 84.347656 90.554688 85.019531 90.078125 C 85.691406 89.601562 86.320312 89.070312 86.90625 88.488281 C 87.488281 87.90625 88.019531 87.277344 88.496094 86.601562 C 88.972656 85.929688 89.390625 85.222656 89.746094 84.476562 C 90.101562 83.734375 90.394531 82.964844 90.621094 82.171875 C 90.847656 81.375 91.003906 80.570312 91.09375 79.75 C 91.613281 74.527344 91.855469 69.292969 91.8125 64.046875 C 91.765625 69.292969 92.007812 74.527344 92.527344 79.75 Z M 92.527344 79.75 " fill-opacity="1" fill-rule="nonzero"/></g><g clip-path="url(#4215625ada)"><path fill="#3d5024" d="M 121.59375 54.59375 C 121.648438 55.097656 121.746094 55.589844 121.882812 56.074219 C 122.023438 56.558594 122.199219 57.027344 122.417969 57.480469 C 122.636719 57.9375 122.890625 58.367188 123.179688 58.78125 C 123.472656 59.191406 123.796875 59.574219 124.152344 59.929688 C 124.507812 60.285156 124.890625 60.609375 125.304688 60.902344 C 125.714844 61.191406 126.148438 61.445312 126.601562 61.664062 C 127.054688 61.882812 127.523438 62.0625 128.007812 62.199219 C 128.492188 62.335938 128.988281 62.433594 129.488281 62.488281 C 132.675781 62.804688 135.871094 62.953125 139.074219 62.925781 C 135.871094 62.898438 132.675781 63.042969 129.488281 63.363281 C 128.988281 63.417969 128.492188 63.511719 128.007812 63.652344 C 127.523438 63.789062 127.054688 63.96875 126.601562 64.183594 C 126.148438 64.402344 125.714844 64.65625 125.304688 64.949219 C 124.890625 65.242188 124.507812 65.5625 124.152344 65.921875 C 123.796875 66.277344 123.472656 66.660156 123.179688 67.070312 C 122.890625 67.484375 122.636719 67.914062 122.417969 68.371094 C 122.199219 68.824219 122.023438 69.292969 121.882812 69.777344 C 121.746094 70.261719 121.648438 70.753906 121.59375 71.253906 C 121.277344 74.445312 121.128906 77.640625 121.15625 80.84375 C 121.183594 77.640625 121.035156 74.445312 120.71875 71.253906 C 120.664062 70.753906 120.566406 70.261719 120.429688 69.777344 C 120.292969 69.292969 120.113281 68.824219 119.894531 68.371094 C 119.675781 67.914062 119.421875 67.484375 119.132812 67.070312 C 118.839844 66.660156 118.515625 66.277344 118.160156 65.921875 C 117.804688 65.5625 117.421875 65.242188 117.011719 64.949219 C 116.597656 64.660156 116.167969 64.402344 115.710938 64.1875 C 115.257812 63.96875 114.789062 63.789062 114.304688 63.652344 C 113.820312 63.511719 113.328125 63.417969 112.828125 63.363281 C 109.640625 63.042969 106.441406 62.898438 103.238281 62.925781 C 106.441406 62.953125 109.640625 62.804688 112.828125 62.488281 C 113.328125 62.433594 113.820312 62.335938 114.304688 62.199219 C 114.789062 62.0625 115.257812 61.882812 115.714844 61.664062 C 116.167969 61.445312 116.601562 61.191406 117.011719 60.902344 C 117.421875 60.609375 117.804688 60.285156 118.160156 59.929688 C 118.519531 59.574219 118.84375 59.191406 119.132812 58.78125 C 119.425781 58.367188 119.679688 57.9375 119.898438 57.480469 C 120.113281 57.027344 120.292969 56.558594 120.429688 56.074219 C 120.570312 55.589844 120.664062 55.097656 120.71875 54.59375 C 121.039062 51.40625 121.183594 48.210938 121.15625 45.007812 C 121.128906 48.210938 121.277344 51.40625 121.59375 54.59375 Z M 121.59375 54.59375 " fill-opacity="1" fill-rule="nonzero"/></g></svg>